
nColumns=19
nRows=85
DataType=double
version=3
OpenSimVersion=4.4-2022-10-11-798caa840
endheader
time	ground_force_calcn_r_vx	ground_force_calcn_r_vy	ground_force_calcn_r_vz	ground_force_calcn_r_px	ground_force_calcn_r_py	ground_force_calcn_r_pz	ground_force_calcn_r_mx	ground_force_calcn_r_my	ground_force_calcn_r_mz	ground_force_calcn_l_vx	ground_force_calcn_l_vy	ground_force_calcn_l_vz	ground_force_calcn_l_px	ground_force_calcn_l_py	ground_force_calcn_l_pz	ground_force_calcn_l_mx	ground_force_calcn_l_my	ground_force_calcn_l_mz
0	-10.67	60.5028	1.39046	0.0922198	0	-0.150603	-0.0846488	0.479991	0.011031	0	0	0	0	0	0	0	0	0
0.01	-16.4824	89.14409999999999	0.741107	0.09991129999999999	0	-0.149938	-0.0872913	0.47211	0.00392492	0	0	0	0	0	0	0	0	0
0.02	-23.5319	123.148	-0.184393	0.106407	0	-0.149405	-0.0897578	0.469722	-0.000703329	0	0	0	0	0	0	0	0	0
0.03	-31.8157	162.245	-1.43544	0.111489	0	-0.148947	-0.0919063	0.468677	-0.00414656	0	0	0	0	0	0	0	0	0
0.04	-41.2452	205.73	-3.05872	0.115822	0	-0.148526	-0.0934175	0.465964	-0.00692778	0	0	0	0	0	0	0	0	0
0.05	-51.6069	252.543	-5.09219	0.119748	0	-0.148114	-0.09380960000000001	0.459067	-0.009256439999999999	0	0	0	0	0	0	0	0	0
0.06	-62.5417	301.385	-7.56261	0.123437	0	-0.147696	-0.0924654	0.445587	-0.011181	0	0	0	0	0	0	0	0	0
0.07000000000000001	-73.5808	350.759	-10.4843	0.12697	0	-0.147254	-0.0886802	0.422737	-0.0126358	0	0	0	0	0	0	0	0	0
0.08	-84.2025	398.994	-13.8476	0.130374	0	-0.146777	-0.0817906	0.387565	-0.0134509	0	0	0	0	0	0	0	0	0
0.09	-93.86450000000001	444.374	-17.6038	0.133655	0	-0.146252	-0.0715176	0.338579	-0.0134128	0	0	0	0	0	0	0	0	0
0.1	-102.054	485.311	-21.6556	0.136803	0	-0.145678	-0.0581678	0.276613	-0.0123431	0	0	0	0	0	0	0	0	0
0.11	-108.375	520.544	-25.8647	0.139823	0	-0.145051	-0.0425066	0.204167	-0.0101446	0	0	0	0	0	0	0	0	0
0.12	-112.607	549.303	-30.0735	0.142729	0	-0.14437	-0.0254611	0.124201	-0.00679983	0	0	0	0	0	0	0	0	0
0.13	-114.709	571.337	-34.1166	0.145552	0	-0.143641	-0.0079728	0.0397107	-0.00237127	0	0	0	0	0	0	0	0	0
0.14	-114.781	586.803	-37.8208	0.148324	0	-0.142868	0.00898032	-0.0459107	0.00295905	0	0	0	0	0	0	0	0	0
0.15	-113.02	596.125	-41.0238	0.151083	0	-0.14206	0.0245842	-0.129669	0.008923479999999999	0	0	0	0	0	0	0	0	0
0.16	-109.682	599.88	-43.6043	0.153862	0	-0.141223	0.0384627	-0.210363	0.0152909	0	0	0	0	0	0	0	0	0
0.17	-105.055	598.734	-45.5006	0.156697	0	-0.140356	0.0506628	-0.288741	0.0219428	0	0	0	0	0	0	0	0	0
0.18	-99.4414	593.407	-46.7099	0.159626	0	-0.139457	0.0614349	-0.366607	0.0288574	0	0	0	0	0	0	0	0	0
0.19	-93.14190000000001	584.648	-47.2824	0.16268	0	-0.13852	0.0711002	-0.446294	0.0360932	0	0	0	0	0	0	0	0	0
0.2	-86.4406	573.227	-47.3109	0.165894	0	-0.137537	0.07994510000000001	-0.530152	0.0437558	0	0	0	0	0	0	0	0	0
0.21	-79.596	559.922	-46.9132	0.169296	0	-0.136501	0.0881015	-0.619754	0.0519263	0	0	0	0	0	0	0	0	0
0.22	-72.82850000000001	545.5069999999999	-46.2144	0.172907	0	-0.135407	0.0955004	-0.715327	0.0606012	0	0	0	0	0	0	0	0	0
0.23	-66.313	530.736	-45.3324	0.17674	0	-0.134255	0.101948	-0.815939	0.0696927	0	0	0	0	0	0	0	0	0
0.24	-60.1769	516.308	-44.3652	0.180791	0	-0.133055	0.107239	-0.920096	0.0790618	0	0	0	0	0	0	0	0	0
0.25	-54.5013	502.839	-43.3864	0.185039	0	-0.131822	0.111262	-1.02652	0.0885715	0	0	0	0	0	0	0	0	0
0.26	-49.3245	490.836	-42.4482	0.189441	0	-0.130579	0.114029	-1.13472	0.0981321	0	0	0	0	0	0	0	0	0
0.27	-44.646	480.679	-41.5903	0.193935	0	-0.129351	0.115623	-1.24485	0.10771	0	0	0	0	0	0	0	0	0
0.28	-40.4349	472.607	-40.847	0.198447	0	-0.128167	0.11611	-1.35711	0.117294	0	0	0	0	0	0	0	0	0
0.29	-36.6415	466.717	-40.251	0.202901	0	-0.127047	0.115486	-1.47099	0.126862	0	0	0	0	0	0	0	0	0
0.3	-33.2076	462.977	-39.8313	0.207228	0	-0.126008	0.11368	-1.58491	0.136354	0	0	0	0	0	0	0	0	0
0.31	-30.0747	461.254	-39.6073	0.211373	0	-0.125062	0.110605	-1.69634	0.145662	0	0	0	0	0	0	0	0	0
0.32	-27.1876	461.347	-39.5857	0.2153	0	-0.124216	0.106211	-1.8023	0.154646	0	0	0	0	0	0	0	0	0
0.33	-24.4948	463.024	-39.7612	0.21899	0	-0.123472	0.10051	-1.89993	0.163153	0	0	0	0	0	0	0	0	0
0.34	-21.9479	466.04	-40.1194	0.222438	0	-0.12283	0.093565	-1.98675	0.171031	0	0	0	0	0	0	0	0	0
0.35	-19.5011	470.155	-40.6409	0.22565	0	-0.122288	0.08547440000000001	-2.06071	0.178131	0	0	0	0	0	0	0	0	0
0.36	-17.111	475.133	-41.3029	0.228645	0	-0.121839	0.0763572	-2.12026	0.184313	0	0	0	0	0	0	0	0	0
0.37	-14.7375	480.749	-42.0806	0.231446	0	-0.121477	0.0663488	-2.16435	0.189449	0	0	0	0	0	0	0	0	0
0.38	-12.3445	486.787	-42.9478	0.234077	0	-0.121194	0.0556009	-2.19255	0.193442	0	0	0	0	0	0	0	0	0
0.39	-9.900679999999999	493.056	-43.8783	0.236566	0	-0.120982	0.0442743	-2.20487	0.196217	0	0	0	0	0	0	0	0	0
0.4	-7.38003	499.386	-44.8463	0.238938	0	-0.120833	0.0325369	-2.20169	0.197718	0	0	0	0	0	0	0	0	0
0.41	-4.76234	505.639	-45.827	0.24122	0	-0.120739	0.0205679	-2.18378	0.19792	0	0	0	0	0	0	0	0	0
0.42	-2.0326	511.702	-46.7959	0.243437	0	-0.120694	0.0085495	-2.15231	0.196832	0	0	0	0	0	0	0	0	0
0.43	0.821568	517.4880000000001	-47.7294	0.245608	0	-0.120693	-0.00334792	-2.10878	0.194499	0	0	0	0	0	0	0	0	0
0.44	3.8131	522.921	-48.6066	0.247747	0	-0.120732	-0.0149852	-2.05505	0.191021	0	0	0	0	0	0	0	0	0
0.45	6.95711	527.938	-49.4106	0.249866	0	-0.120808	-0.0262663	-1.99322	0.186548	0	0	0	0	0	0	0	0	0
0.46	10.2694	532.489	-50.1297	0.251968	0	-0.120918	-0.0371333	-1.92543	0.181264	0	0	0	0	0	0	0	0	0
0.47	13.765	536.535	-50.7573	0.254057	0	-0.12106	-0.0475567	-1.85368	0.175362	0	0	0	0	0	0	0	0	0
0.48	17.4564	540.045	-51.2906	0.256134	0	-0.121234	-0.0575246	-1.77962	0.169019	0	0	0	0	0	0	0	0	0
0.49	21.3538	542.998	-51.7293	0.258198	0	-0.121441	-0.0670323	-1.70454	0.162385	0	0	0	0	0	0	0	0	0
0.5	25.4625	545.373	-52.0732	0.260248	0	-0.121683	-0.0760695	-1.62931	0.155569	0	0	0	0	0	0	0	0	0
0.51	29.7821	547.144	-52.3209	0.262279	0	-0.121959	-0.08461390000000001	-1.55449	0.148649	0	0	0	0	0	0	0	0	0
0.52	34.3055	548.269	-52.4703	0.264288	0	-0.12227	-0.0926191	-1.48024	0.141661	0	0	0	0	0	0	0	0	0
0.53	39.0185	548.6849999999999	-52.5185	0.266271	0	-0.122614	-0.100002	-1.40624	0.134601	0	0	0	0	0	0	0	0	0
0.54	43.8997	548.3	-52.4594	0.26822	0	-0.122987	-0.10663	-1.33179	0.127421	0	0	0	0	0	0	0	0	0
0.55	48.9187	546.994	-52.2836	0.270132	0	-0.123384	-0.112329	-1.25603	0.120055	0	0	0	0	0	0	0	0	0
0.5600000000000001	54.0343	544.625	-51.9766	0.271997	0	-0.123798	-0.116896	-1.17822	0.112444	0	0	0	0	0	0	0	0	0
0.57	59.1907	541.022	-51.5183	0.273814	0	-0.12422	-0.120148	-1.09819	0.104575	0	0	0	0	0	0	0	0	0
0.58	64.31319999999999	535.991	-50.8829	0.27558	0	-0.124645	-0.121964	-1.01646	0.0964945	0	0	0	0	0	0	0	0	0
0.59	69.3069	529.317	-50.041	0.277295	0	-0.125068	-0.122309	-0.934111	0.0883097	0	0	0	0	0	0	0	0	0
0.6	74.056	520.766	-48.9644	0.278963	0	-0.125483	-0.121237	-0.852542	0.08015940000000001	0	0	0	0	0	0	0	0	0
0.61	78.4285	510.094	-47.6288	0.280591	0	-0.125889	-0.118886	-0.7732250000000001	0.072198	0	0	0	0	0	0	0	0	0
0.62	82.2799	497.064	-46.0147	0.282188	0	-0.126283	-0.115476	-0.697603	0.06457930000000001	-4.51438	40.1579	-3.82588	0.752449	0	-0.33992	-0.0242231	0.215478	-0.0205288
0.63	85.45740000000001	481.455	-44.1098	0.283763	0	-0.126661	-0.111289	-0.626986	0.057443	-8.33037	65.9152	-3.30745	0.773342	0	-0.348603	-0.0299172	0.236724	-0.0118782
0.64	87.80419999999999	463.089	-41.9098	0.285327	0	-0.127024	-0.106651	-0.562489	0.0509054	-13.2388	97.4884	-2.43535	0.785138	0	-0.353199	-0.0298845	0.220064	-0.00549741
0.65	89.1662	441.848	-39.4191	0.286894	0	-0.12737	-0.101921	-0.505054	0.045058	-19.3346	134.981	-1.12394	0.793022	0	-0.356078	-0.0268359	0.18735	-0.00155999
0.66	89.401	417.7	-36.6535	0.288478	0	-0.1277	-0.09744650000000001	-0.45529	0.039952	-26.6641	178.098	0.715303	0.7989270000000001	0	-0.358095	-0.0222461	0.148589	0.0005967840000000001
0.67	88.3905	390.723	-33.6422	0.290097	0	-0.128013	-0.0934576	-0.413122	0.0355708	-35.193	226.073	3.16323	0.80375	0	-0.359636	-0.0172571	0.110856	0.0015511
0.68	86.0551	361.135	-30.4305	0.291768	0	-0.128311	-0.0899852	-0.377628	0.0318202	-44.7355	277.746	6.27751	0.807958	0	-0.360901	-0.0129527	0.0804187	0.00181759
0.6899999999999999	82.3723	329.306	-27.0787	0.293511	0	-0.128592	-0.08685610000000001	-0.347231	0.0285527	-54.9368	331.668	10.0733	0.811793	0	-0.361997	-0.0103492	0.0624811	0.00189765
0.7	77.3925	295.759	-23.6604	0.295349	0	-0.128858	-0.0837011	-0.319867	0.0255891	-65.3441	386.094	14.5156	0.815392	0	-0.362985	-0.0103075	0.0609034	0.00228972
0.71	71.24720000000001	261.16	-20.2573	0.297307	0	-0.129106	-0.080013	-0.293292	0.0227496	-75.44629999999999	439	19.5122	0.81882	0	-0.363904	-0.0133539	0.07770249999999999	0.00345363
0.72	64.1454	226.285	-16.9536	0.299419	0	-0.129334	-0.0752188	-0.265348	0.0198803	-84.6844	488.198	24.908	0.82211	0	-0.364779	-0.0194694	0.11224	0.0057265
0.73	56.37	191.96	-13.8308	0.30173	0	-0.129535	-0.068803	-0.234299	0.0168814	-92.50369999999999	531.563	30.4981	0.825271	0	-0.365631	-0.0280757	0.161334	0.009256449999999999
0.74	48.2557	159.011	-10.9587	0.304308	0	-0.129698	-0.0605463	-0.19951	0.0137498	-98.4568	567.3440000000001	36.0616	0.828314	0	-0.366478	-0.0382638	0.22049	0.0140148
0.75	40.151	128.189	-8.388999999999999	0.307258	0	-0.129806	-0.0505986	-0.161545	0.0105719	-102.306	594.471	41.3872	0.831264	0	-0.367335	-0.0489417	0.284386	0.019799
0.76	32.3796	100.121	-6.15193	0.310769	0	-0.129826	-0.039402	-0.121835	0.00748615	-104.059	612.744	46.276	0.834171	0	-0.368211	-0.058881	0.346717	0.026185
0.77	25.2086	75.25700000000001	-4.25473	0.315186	0	-0.129699	-0.0275749	-0.0823212	0.00465411	-103.911	622.76	50.5296	0.837085	0	-0.369101	-0.06682150000000001	0.400473	0.0324936
0.78	18.831	53.8476	-2.68489	0.321205	0	-0.129311	-0.0157586	-0.045062	0.00224683	-102.155	625.631	53.9546	0.840051	0	-0.369992	-0.0717272	0.43928	0.0378836
0.79	13.3555	35.9492	-1.41896	0.330392	0	-0.128399	-0.00462018	-0.0124362	0.0004908720000000001	-99.10250000000001	622.6849999999999	56.3968	0.843101	0	-0.370863	-0.07322380000000001	0.460083	0.0416699
0.8	8.807840000000001	21.4494	-0.429445	0.347147	0	-0.126239	0.00473889	0.0115404	-0.000231055	-95.04519999999999	615.251	57.7763	0.846252	0	-0.371699	-0.0717792	0.464644	0.0436333
0.8100000000000001	0	0	0	0	0	0	0	0	0	-90.2406	604.528	58.1061	0.84951	0	-0.372489	-0.06850299999999999	0.458907	0.0441093
0.82	0	0	0	0	0	0	0	0	0	-84.9128	591.54	57.4969	0.852868	0	-0.373234	-0.0648257	0.451605	0.0438954
0.83	0	0	0	0	0	0	0	0	0	-79.25839999999999	577.1319999999999	56.1379	0.856317	0	-0.373942	-0.0620765	0.452019	0.043968
0.84	0	0	0	0	0	0	0	0	0	-73.4499	562.001	54.257	0.859846	0	-0.374629	-0.0611025	0.467525	0.045136
